<svg xmlns="http://www.w3.org/2000/svg" width="539" height="245"><clipPath id="clip"><rect rx="3" width="100%" height="100%" fill="#000"/></clipPath><linearGradient id="grad" x2="0" y2="100%"><stop offset="0" stop-color="#bbb" stop-opacity=".1"/><stop offset="1" stop-opacity=".1"/></linearGradient><g clip-path="url(#clip)"><rect width="100%" height="100%" fill="#555"/><g fill="#fff" text-anchor="middle" font-family="DejaVu Sans,Verdana,Geneva,sans-serif" font-size="15" font-weight="bold"><text x="269.5" y="18" fill="#010101" fill-opacity=".3">PostGIS and dependencies packaging status</text><text x="269.5" y="17">PostGIS and dependencies packaging status</text></g><rect y="25" width="100%" height="20" fill="url(#grad)"/><g fill="#fff" font-family="DejaVu Sans,Verdana,Geneva,sans-serif" font-size="11"><text x="130.0" y="40" fill="#010101" fill-opacity=".3" text-anchor="middle">postgis</text><text x="130.0" y="39" text-anchor="middle">postgis</text><text x="195.5" y="40" fill="#010101" fill-opacity=".3" text-anchor="middle">postgresql</text><text x="195.5" y="39" text-anchor="middle">postgresql</text><text x="261.0" y="40" fill="#010101" fill-opacity=".3" text-anchor="middle">geos</text><text x="261.0" y="39" text-anchor="middle">geos</text><text x="321.0" y="40" fill="#010101" fill-opacity=".3" text-anchor="middle">gdal</text><text x="321.0" y="39" text-anchor="middle">gdal</text><text x="381.0" y="40" fill="#010101" fill-opacity=".3" text-anchor="middle">sfcgal</text><text x="381.0" y="39" text-anchor="middle">sfcgal</text><text x="441.0" y="40" fill="#010101" fill-opacity=".3" text-anchor="middle">proj</text><text x="441.0" y="39" text-anchor="middle">proj</text><text x="505.0" y="40" fill="#010101" fill-opacity=".3" text-anchor="middle">protobuf-c</text><text x="505.0" y="39" text-anchor="middle">protobuf-c</text></g><rect x="100" y="45" width="60" height="20" fill="#e05d44"/><rect x="160" y="45" width="71" height="20" fill="#e05d44"/><rect x="231" y="45" width="60" height="20" fill="#e00000"/><rect x="291" y="45" width="60" height="20" fill="#e05d44"/><rect x="411" y="45" width="60" height="20" fill="#e05d44"/><rect x="471" y="45" width="68" height="20" fill="#e05d44"/><rect y="45" width="100%" height="20" fill="url(#grad)"/><g fill="#fff" font-family="DejaVu Sans,Verdana,Geneva,sans-serif" font-size="11"><text x="95" y="60" fill="#010101" fill-opacity=".3" text-anchor="end">Fedora 26</text><text x="95" y="59" text-anchor="end">Fedora 26</text><text x="130.0" y="60" fill="#010101" fill-opacity=".3" text-anchor="middle">2.3.2</text><text x="130.0" y="59" text-anchor="middle">2.3.2</text><text x="195.5" y="60" fill="#010101" fill-opacity=".3" text-anchor="middle">9.6.9</text><text x="195.5" y="59" text-anchor="middle">9.6.9</text><text x="261.0" y="60" fill="#010101" fill-opacity=".3" text-anchor="middle">3.6.1</text><text x="261.0" y="59" text-anchor="middle">3.6.1</text><text x="321.0" y="60" fill="#010101" fill-opacity=".3" text-anchor="middle">2.1.3</text><text x="321.0" y="59" text-anchor="middle">2.1.3</text><text x="381.0" y="60" fill="#010101" fill-opacity=".3" text-anchor="middle">-</text><text x="381.0" y="59" text-anchor="middle">-</text><text x="441.0" y="60" fill="#010101" fill-opacity=".3" text-anchor="middle">4.9.3</text><text x="441.0" y="59" text-anchor="middle">4.9.3</text><text x="505.0" y="60" fill="#010101" fill-opacity=".3" text-anchor="middle">1.2.1</text><text x="505.0" y="59" text-anchor="middle">1.2.1</text></g><rect x="100" y="65" width="60" height="20" fill="#e05d44"/><rect x="160" y="65" width="71" height="20" fill="#e05d44"/><rect x="231" y="65" width="60" height="20" fill="#e00000"/><rect x="291" y="65" width="60" height="20" fill="#e05d44"/><rect x="411" y="65" width="60" height="20" fill="#e05d44"/><rect x="471" y="65" width="68" height="20" fill="#e05d44"/><rect y="65" width="100%" height="20" fill="url(#grad)"/><g fill="#fff" font-family="DejaVu Sans,Verdana,Geneva,sans-serif" font-size="11"><text x="95" y="80" fill="#010101" fill-opacity=".3" text-anchor="end">Fedora 27</text><text x="95" y="79" text-anchor="end">Fedora 27</text><text x="130.0" y="80" fill="#010101" fill-opacity=".3" text-anchor="middle">2.3.3</text><text x="130.0" y="79" text-anchor="middle">2.3.3</text><text x="195.5" y="80" fill="#010101" fill-opacity=".3" text-anchor="middle">9.6.10</text><text x="195.5" y="79" text-anchor="middle">9.6.10</text><text x="261.0" y="80" fill="#010101" fill-opacity=".3" text-anchor="middle">3.6.1</text><text x="261.0" y="79" text-anchor="middle">3.6.1</text><text x="321.0" y="80" fill="#010101" fill-opacity=".3" text-anchor="middle">2.1.4</text><text x="321.0" y="79" text-anchor="middle">2.1.4</text><text x="381.0" y="80" fill="#010101" fill-opacity=".3" text-anchor="middle">-</text><text x="381.0" y="79" text-anchor="middle">-</text><text x="441.0" y="80" fill="#010101" fill-opacity=".3" text-anchor="middle">4.9.3</text><text x="441.0" y="79" text-anchor="middle">4.9.3</text><text x="505.0" y="80" fill="#010101" fill-opacity=".3" text-anchor="middle">1.2.1</text><text x="505.0" y="79" text-anchor="middle">1.2.1</text></g><rect x="100" y="85" width="60" height="20" fill="#e05d44"/><rect x="160" y="85" width="71" height="20" fill="#e05d44"/><rect x="231" y="85" width="60" height="20" fill="#e00000"/><rect x="291" y="85" width="60" height="20" fill="#e05d44"/><rect x="411" y="85" width="60" height="20" fill="#e05d44"/><rect x="471" y="85" width="68" height="20" fill="#e05d44"/><rect y="85" width="100%" height="20" fill="url(#grad)"/><g fill="#fff" font-family="DejaVu Sans,Verdana,Geneva,sans-serif" font-size="11"><text x="95" y="100" fill="#010101" fill-opacity=".3" text-anchor="end">Fedora 28</text><text x="95" y="99" text-anchor="end">Fedora 28</text><text x="130.0" y="100" fill="#010101" fill-opacity=".3" text-anchor="middle">2.4.3</text><text x="130.0" y="99" text-anchor="middle">2.4.3</text><text x="195.5" y="100" fill="#010101" fill-opacity=".3" text-anchor="middle">10.7</text><text x="195.5" y="99" text-anchor="middle">10.7</text><text x="261.0" y="100" fill="#010101" fill-opacity=".3" text-anchor="middle">3.6.2</text><text x="261.0" y="99" text-anchor="middle">3.6.2</text><text x="321.0" y="100" fill="#010101" fill-opacity=".3" text-anchor="middle">2.2.4</text><text x="321.0" y="99" text-anchor="middle">2.2.4</text><text x="381.0" y="100" fill="#010101" fill-opacity=".3" text-anchor="middle">-</text><text x="381.0" y="99" text-anchor="middle">-</text><text x="441.0" y="100" fill="#010101" fill-opacity=".3" text-anchor="middle">4.9.3</text><text x="441.0" y="99" text-anchor="middle">4.9.3</text><text x="505.0" y="100" fill="#010101" fill-opacity=".3" text-anchor="middle">1.3.0</text><text x="505.0" y="99" text-anchor="middle">1.3.0</text></g><rect x="100" y="105" width="60" height="20" fill="#e05d44"/><rect x="160" y="105" width="71" height="20" fill="#e05d44"/><rect x="231" y="105" width="60" height="20" fill="#e00000"/><rect x="291" y="105" width="60" height="20" fill="#e05d44"/><rect x="411" y="105" width="60" height="20" fill="#e05d44"/><rect x="471" y="105" width="68" height="20" fill="#e05d44"/><rect y="105" width="100%" height="20" fill="url(#grad)"/><g fill="#fff" font-family="DejaVu Sans,Verdana,Geneva,sans-serif" font-size="11"><text x="95" y="120" fill="#010101" fill-opacity=".3" text-anchor="end">Fedora 29</text><text x="95" y="119" text-anchor="end">Fedora 29</text><text x="130.0" y="120" fill="#010101" fill-opacity=".3" text-anchor="middle">2.4.3</text><text x="130.0" y="119" text-anchor="middle">2.4.3</text><text x="195.5" y="120" fill="#010101" fill-opacity=".3" text-anchor="middle">10.10</text><text x="195.5" y="119" text-anchor="middle">10.10</text><text x="261.0" y="120" fill="#010101" fill-opacity=".3" text-anchor="middle">3.6.2</text><text x="261.0" y="119" text-anchor="middle">3.6.2</text><text x="321.0" y="120" fill="#010101" fill-opacity=".3" text-anchor="middle">2.3.2</text><text x="321.0" y="119" text-anchor="middle">2.3.2</text><text x="381.0" y="120" fill="#010101" fill-opacity=".3" text-anchor="middle">-</text><text x="381.0" y="119" text-anchor="middle">-</text><text x="441.0" y="120" fill="#010101" fill-opacity=".3" text-anchor="middle">4.9.3</text><text x="441.0" y="119" text-anchor="middle">4.9.3</text><text x="505.0" y="120" fill="#010101" fill-opacity=".3" text-anchor="middle">1.3.0</text><text x="505.0" y="119" text-anchor="middle">1.3.0</text></g><rect x="100" y="125" width="60" height="20" fill="#e05d44"/><rect x="160" y="125" width="71" height="20" fill="#e05d44"/><rect x="231" y="125" width="60" height="20" fill="#e05d44"/><rect x="291" y="125" width="60" height="20" fill="#e05d44"/><rect x="411" y="125" width="60" height="20" fill="#e05d44"/><rect x="471" y="125" width="68" height="20" fill="#e05d44"/><rect y="125" width="100%" height="20" fill="url(#grad)"/><g fill="#fff" font-family="DejaVu Sans,Verdana,Geneva,sans-serif" font-size="11"><text x="95" y="140" fill="#010101" fill-opacity=".3" text-anchor="end">Fedora 30</text><text x="95" y="139" text-anchor="end">Fedora 30</text><text x="130.0" y="140" fill="#010101" fill-opacity=".3" text-anchor="middle">2.5.1</text><text x="130.0" y="139" text-anchor="middle">2.5.1</text><text x="195.5" y="140" fill="#010101" fill-opacity=".3" text-anchor="middle">12.2</text><text x="195.5" y="139" text-anchor="middle">12.2</text><text x="261.0" y="140" fill="#010101" fill-opacity=".3" text-anchor="middle">3.7.1</text><text x="261.0" y="139" text-anchor="middle">3.7.1</text><text x="321.0" y="140" fill="#010101" fill-opacity=".3" text-anchor="middle">2.3.2</text><text x="321.0" y="139" text-anchor="middle">2.3.2</text><text x="381.0" y="140" fill="#010101" fill-opacity=".3" text-anchor="middle">-</text><text x="381.0" y="139" text-anchor="middle">-</text><text x="441.0" y="140" fill="#010101" fill-opacity=".3" text-anchor="middle">5.2.0</text><text x="441.0" y="139" text-anchor="middle">5.2.0</text><text x="505.0" y="140" fill="#010101" fill-opacity=".3" text-anchor="middle">1.3.1</text><text x="505.0" y="139" text-anchor="middle">1.3.1</text></g><rect x="100" y="145" width="60" height="20" fill="#4c1"/><rect x="160" y="145" width="71" height="20" fill="#e05d44"/><rect x="231" y="145" width="60" height="20" fill="#4c1"/><rect x="291" y="145" width="60" height="20" fill="#e05d44"/><rect x="351" y="145" width="60" height="20" fill="#e05d44"/><rect x="411" y="145" width="60" height="20" fill="#4c1"/><rect x="471" y="145" width="68" height="20" fill="#4c1"/><rect y="145" width="100%" height="20" fill="url(#grad)"/><g fill="#fff" font-family="DejaVu Sans,Verdana,Geneva,sans-serif" font-size="11"><text x="95" y="160" fill="#010101" fill-opacity=".3" text-anchor="end">Fedora Rawhide</text><text x="95" y="159" text-anchor="end">Fedora Rawhide</text><text x="130.0" y="160" fill="#010101" fill-opacity=".3" text-anchor="middle">3.2.1</text><text x="130.0" y="159" text-anchor="middle">3.2.1</text><text x="195.5" y="160" fill="#010101" fill-opacity=".3" text-anchor="middle">14.2</text><text x="195.5" y="159" text-anchor="middle">14.2</text><text x="261.0" y="160" fill="#010101" fill-opacity=".3" text-anchor="middle">3.10.2</text><text x="261.0" y="159" text-anchor="middle">3.10.2</text><text x="321.0" y="160" fill="#010101" fill-opacity=".3" text-anchor="middle">3.4.3</text><text x="321.0" y="159" text-anchor="middle">3.4.3</text><text x="381.0" y="160" fill="#010101" fill-opacity=".3" text-anchor="middle">1.4.0</text><text x="381.0" y="159" text-anchor="middle">1.4.0</text><text x="441.0" y="160" fill="#010101" fill-opacity=".3" text-anchor="middle">9.0.0</text><text x="441.0" y="159" text-anchor="middle">9.0.0</text><text x="505.0" y="160" fill="#010101" fill-opacity=".3" text-anchor="middle">1.4.0</text><text x="505.0" y="159" text-anchor="middle">1.4.0</text></g><rect x="100" y="165" width="60" height="20" fill="#4c1"/><rect x="160" y="165" width="71" height="20" fill="#4c1"/><rect x="231" y="165" width="60" height="20" fill="#4c1"/><rect x="291" y="165" width="60" height="20" fill="#e05d44"/><rect x="351" y="165" width="60" height="20" fill="#4c1"/><rect x="411" y="165" width="60" height="20" fill="#e05d44"/><rect x="471" y="165" width="68" height="20" fill="#4c1"/><rect y="165" width="100%" height="20" fill="url(#grad)"/><g fill="#fff" font-family="DejaVu Sans,Verdana,Geneva,sans-serif" font-size="11"><text x="95" y="180" fill="#010101" fill-opacity=".3" text-anchor="end">FreeBSD Ports</text><text x="95" y="179" text-anchor="end">FreeBSD Ports</text><text x="130.0" y="180" fill="#010101" fill-opacity=".3" text-anchor="middle">3.2.1</text><text x="130.0" y="179" text-anchor="middle">3.2.1</text><text x="195.5" y="180" fill="#010101" fill-opacity=".3" text-anchor="middle">15.b1</text><text x="195.5" y="179" text-anchor="middle">15.b1</text><text x="261.0" y="180" fill="#010101" fill-opacity=".3" text-anchor="middle">3.10.2</text><text x="261.0" y="179" text-anchor="middle">3.10.2</text><text x="321.0" y="180" fill="#010101" fill-opacity=".3" text-anchor="middle">3.4.3</text><text x="321.0" y="179" text-anchor="middle">3.4.3</text><text x="381.0" y="180" fill="#010101" fill-opacity=".3" text-anchor="middle">1.4.1</text><text x="381.0" y="179" text-anchor="middle">1.4.1</text><text x="441.0" y="180" fill="#010101" fill-opacity=".3" text-anchor="middle">8.2.1</text><text x="441.0" y="179" text-anchor="middle">8.2.1</text><text x="505.0" y="180" fill="#010101" fill-opacity=".3" text-anchor="middle">1.4.0</text><text x="505.0" y="179" text-anchor="middle">1.4.0</text></g><rect x="100" y="185" width="60" height="20" fill="#e00000"/><rect x="160" y="185" width="71" height="20" fill="#e00000"/><rect x="231" y="185" width="60" height="20" fill="#e00000"/><rect x="291" y="185" width="60" height="20" fill="#e00000"/><rect x="411" y="185" width="60" height="20" fill="#e00000"/><rect x="471" y="185" width="68" height="20" fill="#e00000"/><rect y="185" width="100%" height="20" fill="url(#grad)"/><g fill="#fff" font-family="DejaVu Sans,Verdana,Geneva,sans-serif" font-size="11"><text x="95" y="200" fill="#010101" fill-opacity=".3" text-anchor="end">Ubuntu 14.04</text><text x="95" y="199" text-anchor="end">Ubuntu 14.04</text><text x="130.0" y="200" fill="#010101" fill-opacity=".3" text-anchor="middle">2.1.2</text><text x="130.0" y="199" text-anchor="middle">2.1.2</text><text x="195.5" y="200" fill="#010101" fill-opacity=".3" text-anchor="middle">9.3.24</text><text x="195.5" y="199" text-anchor="middle">9.3.24</text><text x="261.0" y="200" fill="#010101" fill-opacity=".3" text-anchor="middle">3.4.2</text><text x="261.0" y="199" text-anchor="middle">3.4.2</text><text x="321.0" y="200" fill="#010101" fill-opacity=".3" text-anchor="middle">1.10.1</text><text x="321.0" y="199" text-anchor="middle">1.10.1</text><text x="381.0" y="200" fill="#010101" fill-opacity=".3" text-anchor="middle">-</text><text x="381.0" y="199" text-anchor="middle">-</text><text x="441.0" y="200" fill="#010101" fill-opacity=".3" text-anchor="middle">4.8.0</text><text x="441.0" y="199" text-anchor="middle">4.8.0</text><text x="505.0" y="200" fill="#010101" fill-opacity=".3" text-anchor="middle">0.15</text><text x="505.0" y="199" text-anchor="middle">0.15</text></g><rect x="100" y="205" width="60" height="20" fill="#e00000"/><rect x="160" y="205" width="71" height="20" fill="#e05d44"/><rect x="231" y="205" width="60" height="20" fill="#e00000"/><rect x="291" y="205" width="60" height="20" fill="#e00000"/><rect x="351" y="205" width="60" height="20" fill="#e00000"/><rect x="411" y="205" width="60" height="20" fill="#e05d44"/><rect x="471" y="205" width="68" height="20" fill="#e05d44"/><rect y="205" width="100%" height="20" fill="url(#grad)"/><g fill="#fff" font-family="DejaVu Sans,Verdana,Geneva,sans-serif" font-size="11"><text x="95" y="220" fill="#010101" fill-opacity=".3" text-anchor="end">Ubuntu 16.04</text><text x="95" y="219" text-anchor="end">Ubuntu 16.04</text><text x="130.0" y="220" fill="#010101" fill-opacity=".3" text-anchor="middle">2.2.1</text><text x="130.0" y="219" text-anchor="middle">2.2.1</text><text x="195.5" y="220" fill="#010101" fill-opacity=".3" text-anchor="middle">9.5.25</text><text x="195.5" y="219" text-anchor="middle">9.5.25</text><text x="261.0" y="220" fill="#010101" fill-opacity=".3" text-anchor="middle">3.5.0</text><text x="261.0" y="219" text-anchor="middle">3.5.0</text><text x="321.0" y="220" fill="#010101" fill-opacity=".3" text-anchor="middle">1.11.3</text><text x="321.0" y="219" text-anchor="middle">1.11.3</text><text x="381.0" y="220" fill="#010101" fill-opacity=".3" text-anchor="middle">1.2.2</text><text x="381.0" y="219" text-anchor="middle">1.2.2</text><text x="441.0" y="220" fill="#010101" fill-opacity=".3" text-anchor="middle">4.9.2</text><text x="441.0" y="219" text-anchor="middle">4.9.2</text><text x="505.0" y="220" fill="#010101" fill-opacity=".3" text-anchor="middle">1.2.1</text><text x="505.0" y="219" text-anchor="middle">1.2.1</text></g><rect x="100" y="225" width="60" height="20" fill="#e05d44"/><rect x="160" y="225" width="71" height="20" fill="#e05d44"/><rect x="231" y="225" width="60" height="20" fill="#e00000"/><rect x="291" y="225" width="60" height="20" fill="#e05d44"/><rect x="411" y="225" width="60" height="20" fill="#e05d44"/><rect x="471" y="225" width="68" height="20" fill="#e05d44"/><rect y="225" width="100%" height="20" fill="url(#grad)"/><g fill="#fff" font-family="DejaVu Sans,Verdana,Geneva,sans-serif" font-size="11"><text x="95" y="240" fill="#010101" fill-opacity=".3" text-anchor="end">Ubuntu 18.04</text><text x="95" y="239" text-anchor="end">Ubuntu 18.04</text><text x="130.0" y="240" fill="#010101" fill-opacity=".3" text-anchor="middle">2.4.3</text><text x="130.0" y="239" text-anchor="middle">2.4.3</text><text x="195.5" y="240" fill="#010101" fill-opacity=".3" text-anchor="middle">10.20</text><text x="195.5" y="239" text-anchor="middle">10.20</text><text x="261.0" y="240" fill="#010101" fill-opacity=".3" text-anchor="middle">3.6.2</text><text x="261.0" y="239" text-anchor="middle">3.6.2</text><text x="321.0" y="240" fill="#010101" fill-opacity=".3" text-anchor="middle">2.2.3</text><text x="321.0" y="239" text-anchor="middle">2.2.3</text><text x="381.0" y="240" fill="#010101" fill-opacity=".3" text-anchor="middle">-</text><text x="381.0" y="239" text-anchor="middle">-</text><text x="441.0" y="240" fill="#010101" fill-opacity=".3" text-anchor="middle">4.9.3</text><text x="441.0" y="239" text-anchor="middle">4.9.3</text><text x="505.0" y="240" fill="#010101" fill-opacity=".3" text-anchor="middle">1.2.1</text><text x="505.0" y="239" text-anchor="middle">1.2.1</text></g></g></svg>